<svg width="26" height="30" fill="none" xmlns="http://www.w3.org/2000/svg"><path d="M2.165 9.718c-.517 0-.956.18-1.316.54-.36.36-.541.793-.541 1.298v7.753c0 .517.18.955.54 1.316.361.36.8.54 1.317.54.516 0 .952-.18 1.307-.54.354-.36.532-.799.532-1.316v-7.753c0-.505-.18-.937-.541-1.298a1.77 1.77 0 00-1.298-.54zm14.928-6.96l1.28-2.361c.084-.157.054-.276-.09-.36-.157-.073-.277-.037-.36.107l-1.299 2.38A8.863 8.863 0 0013 1.767a8.862 8.862 0 00-3.623.757L8.078.144c-.084-.144-.204-.18-.36-.108-.144.085-.174.204-.09.36l1.28 2.362c-1.298.662-2.332 1.584-3.1 2.768A6.99 6.99 0 004.652 9.41H21.33c0-1.406-.384-2.7-1.154-3.885a7.938 7.938 0 00-3.082-2.768zM9.692 6.193a.676.676 0 01-.496.208.645.645 0 01-.487-.208.69.69 0 01-.198-.496c0-.192.066-.357.198-.495a.647.647 0 01.487-.208.68.68 0 01.496.208.678.678 0 01.207.495.68.68 0 01-.207.496zm7.599 0a.646.646 0 01-.487.208.675.675 0 01-.496-.208.675.675 0 01-.207-.496c0-.192.069-.357.207-.495a.677.677 0 01.496-.208c.192 0 .354.07.487.208a.692.692 0 01.198.495.691.691 0 01-.198.496zM4.725 22.067c0 .553.192 1.022.576 1.406.385.385.854.577 1.407.577h1.334l.018 4.093c0 .517.18.956.541 1.316.36.36.793.541 1.298.541.517 0 .955-.18 1.316-.54.36-.361.54-.8.54-1.317V24.05h2.489v4.093c0 .517.18.956.54 1.316.361.36.8.541 1.316.541.517 0 .956-.18 1.316-.54.361-.361.541-.8.541-1.317V24.05h1.352c.541 0 1.004-.192 1.389-.576.384-.385.576-.853.576-1.407V10.06H4.724v12.007zm19.11-12.349c-.504 0-.937.177-1.297.531a1.762 1.762 0 00-.541 1.307v7.753c0 .517.18.955.54 1.316.361.36.794.54 1.299.54.516 0 .955-.18 1.316-.54.36-.36.54-.799.54-1.316v-7.753c0-.516-.18-.952-.54-1.307a1.81 1.81 0 00-1.317-.531z" fill="#fff"/></svg>