<svg width="20" height="24" fill="none" xmlns="http://www.w3.org/2000/svg"><path d="M5.07 15.44c0-.398-.277-.636-.765-.636-.2 0-.334.02-.405.039v1.279c.084.018.187.025.328.025.52 0 .842-.263.842-.706zm3.02-.622c-.218 0-.36.019-.443.039v2.832c.084.02.219.02.34.02.887.006 1.465-.482 1.465-1.516.007-.9-.52-1.375-1.362-1.375z" fill="#fff"/><path d="M13.703 0h-9.64A2.558 2.558 0 001.51 2.554V12h-.25c-.568 0-1.03.46-1.03 1.03v6.242c0 .569.461 1.029 1.03 1.029h.25v1.145A2.557 2.557 0 004.063 24h13.152a2.557 2.557 0 002.554-2.554v-15.4L13.703 0zM2.93 14.156c.301-.051.725-.09 1.323-.09.603 0 1.034.116 1.323.347.276.218.462.578.462 1.002 0 .424-.14.784-.398 1.028-.334.314-.828.456-1.406.456-.13 0-.244-.007-.335-.02v1.549h-.97v-4.272zm14.285 8.28H4.064a.99.99 0 01-.99-.99V20.3h12.261c.568 0 1.03-.46 1.03-1.03v-6.24c0-.569-.461-1.029-1.03-1.029H3.075V2.554a.99.99 0 01.989-.988l9.054-.01v3.347c0 .978.793 1.772 1.771 1.772l3.279-.01.037 14.78a.99.99 0 01-.989.99zm-10.55-4.028v-4.252a8.84 8.84 0 011.323-.09c.822 0 1.355.148 1.773.462.45.335.732.867.732 1.632 0 .829-.302 1.4-.72 1.754-.456.378-1.15.558-1.997.558-.508 0-.867-.032-1.111-.064zm7.01-2.518v.797H12.12v1.74h-.982V14.1h2.646v.802H12.12v.99h1.555z" fill="#fff"/></svg>