<svg width="404" height="54" fill="none" xmlns="http://www.w3.org/2000/svg"><g clip-path="url(#clip0_12:548)" fill-rule="evenodd" clip-rule="evenodd"><path d="M381.496 17.278c7.497-.007 14.994.01 22.491-.007.023 1.776.009 3.552.014 5.328-2.638-.004-5.272 0-7.906 0V45.8h-6.693V22.599c-2.634 0-5.273-.004-7.902.004a675.296 675.296 0 01-.004-5.325zm-32.373.059c2.239-.147 4.49-.021 6.742-.052-3.062 4.413-6.305 8.701-9.385 13.102 3.421 5.212 7.188 10.24 10.704 15.41-2.543.011-5.082-.003-7.62.007-3.276-4.693-6.624-9.333-9.927-14.01.037 4.67.009 9.334.014 13.999-2.246.01-4.494.014-6.737-.004.027-9.508-.023-19.016.023-28.523 2.238.02 4.472.007 6.714.01.005 4.382-.005 8.764.005 13.147 3.152-4.36 6.269-8.756 9.467-13.086zm16.441 6.113c-1.355 1.486-1.542 3.597-1.697 5.512 3.148.008 6.287.005 9.435 0-.073-2.233-.1-5-2.188-6.367-1.733-.966-4.245-.73-5.55.855zm-6.228-1.672c-2.015 3.27-2.501 7.233-2.369 11.005.132 3.237.827 6.623 2.87 9.221 1.86 2.477 4.89 3.81 7.897 4.198 4.108.492 8.489-.042 12.055-2.271.018-1.828.001-3.657.014-5.486-2.36 1.368-4.981 2.32-7.706 2.544-2.097.168-4.431 0-6.105-1.41-1.611-1.389-1.942-3.622-2.129-5.62 5.409-.05 10.827-.007 16.24-.021-.018-3.364.187-6.815-.846-10.067-.632-2.194-1.929-4.243-3.853-5.505-2.507-1.616-5.66-1.903-8.553-1.483-3.075.384-5.918 2.23-7.515 4.895zm-44.755.43c-2.009.398-3.229 2.32-3.723 4.176-.702 2.826-.681 5.789-.347 8.664.28 2.054.938 4.371 2.854 5.481 2.235 1.081 5.377.495 6.669-1.762 1.318-2.205 1.401-4.88 1.457-7.379-.062-2.564-.187-5.328-1.664-7.519-1.11-1.693-3.394-2.119-5.246-1.662zm.202-5.032c3.256-1.064 7.115-.295 9.57 2.153 2.758 2.67 3.772 6.616 4.017 10.338.241 4.177-.231 8.633-2.542 12.219-1.924 2.987-5.487 4.744-9.015 4.465-2.67-.094-5.064-1.712-6.545-3.876.031 3.841.017 7.682.007 11.524-2.231 0-4.46-.003-6.688 0 .01-12.235.007-24.472 0-36.708 2.068-.024 4.137-.007 6.208-.017.094 1.211.212 2.421.327 3.629 1.188-1.616 2.703-3.113 4.661-3.727zM284.215 33.54c-2.037 1.053-2.166 3.862-1.32 5.747.893 1.877 3.284 2.236 5.123 1.853 1.386-.186 2.565-1.026 3.458-2.073-.014-2.208-.007-4.414-.007-6.62-2.429.109-5.04-.1-7.254 1.093zm-1.053-16.248c3.577-.673 7.466-.789 10.862.705 2.589 1.186 3.928 4.033 4.081 6.776.237 7.006-.261 14.036.403 21.028h-6.607a47.496 47.496 0 01-.515-2.359c-1.508 1.437-3.392 2.536-5.505 2.669-2.844.335-6.072-.178-8.086-2.397-2.089-2.205-2.596-5.53-2.091-8.44.465-2.529 2.408-4.578 4.717-5.571 3.448-1.58 7.327-1.724 11.056-1.696-.045-1.644.195-3.64-1.154-4.857-1.557-1.151-3.652-1.023-5.47-.795-2.566.394-5.137 1.182-7.289 2.675.031-1.842-.049-3.684.031-5.523 1.587-1.204 3.652-1.703 5.567-2.215zM237.559 6.374c3.01-.004 6.023.003 9.037-.004a6018.257 6018.257 0 007.844 29.005c2.681-9.662 5.298-19.34 7.977-29.001 2.948-.004 5.899.007 8.85-.007-.007 13.143 0 26.283-.004 39.426-2.145.017-4.286-.004-6.431.014 0-9.85.007-19.7 0-29.548-2.787 9.81-5.332 19.7-8.022 29.538-1.88.007-3.761 0-5.642.007-2.645-9.864-5.372-19.703-7.928-29.587-.199 9.856-.031 19.723-.087 29.584h-5.606c.011-13.14-.009-26.284.012-39.427zm-123.731 10.9c2.238.01 4.476-.003 6.718.01-.003 4.375-.007 8.75.004 13.13 3.149-4.38 6.323-8.737 9.454-13.126a334.15 334.15 0 016.798.007c-3.18 4.364-6.312 8.764-9.493 13.13 3.584 5.128 7.192 10.24 10.779 15.365-2.541.024-5.078 0-7.619.014-3.298-4.63-6.541-9.305-9.909-13.886-.042 4.626-.003 9.256-.017 13.883h-6.736c.018-9.508-.024-19.02.021-28.527zm-46.16 5.332c-.059 6.005-.25 12.187-2.36 17.874 3.164-.01 6.33.017 9.493-.014-.023-5.96 0-11.919-.01-17.874-2.375.017-4.749-.004-7.123.014zm-5.78-5.328c6.532 0 13.062 0 19.597.004-.003 7.732 0 15.463 0 23.198h2.996v11.821c-2.075-.007-4.143.007-6.215-.01.007-2.16-.014-4.323.014-6.483-5.022-.028-10.045.021-15.068-.024-.035 2.17-.028 4.337-.007 6.507-2.08.017-4.157.003-6.232.01.007-3.939.01-7.875 0-11.814.66-.007 1.327-.01 1.99-.014l.196-.104c1.06-2.38 1.605-4.948 1.98-7.515.732-5.158.79-10.378.749-15.576zm-30.153.004c2.245 0 4.495-.018 6.743.014-.017 3.757-.007 7.515-.007 11.277 2.996.003 5.993-.004 8.992.003.014-3.772-.028-7.544.02-11.312 2.226.03 4.45 0 6.675.02-.008 9.506 0 19.013-.004 28.517h-6.691V33.893c-3 .003-5.996-.005-8.992.003-.007 3.967.004 7.934-.003 11.904h-6.733V17.282zm110.077 2.756c-2.927 2.837-4.032 7.047-4.109 11.022-.042 3.768.484 7.798 2.813 10.89 1.88 2.546 4.97 3.934 8.053 4.273 3.187.331 6.656.234 9.43-1.581-.01-1.834 0-3.67-.007-5.506-2.405 1.64-5.471 2.265-8.321 1.713-2.103-.418-3.668-2.197-4.279-4.194-.91-2.91-.948-6.068-.362-9.043.466-2.397 2.082-4.79 4.579-5.345 2.85-.628 5.846.163 8.387 1.5 0-1.891-.01-3.782.01-5.67-2.138-1.13-4.609-1.326-6.977-1.388-3.325-.07-6.818.928-9.217 3.329zm-47.508 3.98c-.918 1.473-1.115 3.245-1.251 4.938 3.146.02 6.288.007 9.434.007-.049-2.163-.105-4.756-1.958-6.218-1.943-1.312-4.999-.802-6.224 1.274zm-4.335-4.072c2.433-2.602 6.194-3.54 9.65-3.168 2.974.179 6.033 1.606 7.556 4.274 2.388 3.835 2.127 8.541 2.113 12.879-5.409.02-10.82-.004-16.228.01.183 2.094.587 4.484 2.377 5.834 1.572 1.18 3.65 1.333 5.544 1.243 2.853-.186 5.625-1.132 8.054-2.632-.076 1.838.129 3.699-.101 5.524-3.243 2.125-7.275 2.668-11.074 2.387-3.167-.231-6.427-1.403-8.513-3.908-2.645-3.098-3.273-7.372-3.212-11.322.104-3.957.99-8.197 3.834-11.12zM10.434 7.065c2.784-.74 5.683-.69 8.537-.69 2.374.006 4.748-.018 7.126.016-.025 13.136-.004 26.273-.011 39.41h-6.824c.004-11.354 0-22.705 0-34.058-3.163-.035-6.718-.293-9.329 1.856-2.826 2.338-2.707 6.661-1.324 9.759 1.849 3.51 5.606 5.262 8.686 7.498-3.19 5.048-6.61 9.944-9.885 14.937-2.47.017-4.94 0-7.41.01 2.961-4.46 5.968-8.88 8.93-13.335-3.244-2.265-6.385-5.182-7.477-9.124-.997-3.719-.748-7.96 1.414-11.234 1.697-2.637 4.582-4.298 7.567-5.045z" fill="#fff"/><path d="M190.248 27.86c5.068-6.93 9.973-13.974 14.995-20.938 2.267.903 4.532 1.82 6.802 2.728 1.008.489 2.277.687 3.097 1.427-.858 4.305-1.967 8.562-2.892 12.853 3.087-2.56 6.132-5.177 9.218-7.745 1.495 3.465 2.155 7.257 1.964 11.026l-.028.028c-5.099 4.57-10.098 9.26-15.249 13.77a203.636 203.636 0 00-7.935-3.984c1.008-3.988 2.002-7.98 2.986-11.97-4.721 6.953-9.274 14.022-14.002 20.969-3.326-1.35-6.663-2.68-9.993-4.02 1.022-4.019 1.992-8.052 3.028-12.072a2412.417 2412.417 0 00-7.258 9.749c-1.887-3.102-3.17-6.58-3.569-10.202 4.119-4.923 8.168-9.906 12.242-14.864.25-.226.507-.819.932-.498 2.569 1.234 5.11 2.54 7.65 3.845-.691 3.293-1.33 6.597-1.988 9.898z" fill="#000"/><path d="M189.205 46.024c4.728-6.947 9.281-14.016 14.002-20.97a2112.98 2112.98 0 01-2.986 11.971 202.93 202.93 0 017.935 3.985c5.151-4.512 10.15-9.201 15.249-13.771-.258 9.59-6.337 18.656-15.002 22.655-5.614 2.637-12.158 3.172-18.12 1.486-6.337-1.772-11.908-6.046-15.301-11.7 2.409-3.254 4.832-6.502 7.258-9.748-1.036 4.02-2.006 8.053-3.028 12.072 3.33 1.34 6.668 2.67 9.993 4.02z" fill="#FED104"/><path d="M185.522 2.836c6.232-3.252 13.81-3.705 20.424-1.37 6.945 2.413 12.74 7.887 15.523 14.719-3.086 2.568-6.131 5.184-9.218 7.745.925-4.29 2.033-8.548 2.892-12.853-.82-.74-2.089-.938-3.097-1.427-2.27-.907-4.535-1.825-6.802-2.728-5.022 6.963-9.927 14.008-14.995 20.938.658-3.3 1.297-6.605 1.988-9.898-2.54-1.306-5.081-2.61-7.65-3.845-.424-.321-.681.272-.932.498-4.073 4.958-8.123 9.94-12.242 14.864-.463-4.655.003-9.46 1.946-13.754 2.398-5.537 6.767-10.202 12.163-12.889z" fill="#FED104"/></g><defs><clipPath id="clip0_12:548"><path fill="#fff" d="M0 0h404v54H0z"/></clipPath></defs></svg>