<svg width="176" height="62" fill="none" xmlns="http://www.w3.org/2000/svg"><path fill-rule="evenodd" clip-rule="evenodd" d="M42.55 36.333c-.182 2.096.831 3.144 3.053 3.144 1.413 0 2.655-.44 3.73-1.334 1.075-.894 1.681-2.074 1.81-3.552l.231-2.637-2.701.099c-3.845.177-5.889 1.611-6.122 4.28zm117.746-13.506l3.782-9.778H176l-3.512 7.694-12.192 2.084zm-17.736 3.03l-3.954-12.807h12.316l2.264 10.992-10.626 1.816zM142.219 62c-1.555 0-3.126-.165-4.739-.507l.813-9.266c1.062.243 2.179.365 3.35.365 2.178 0 3.897-.76 5.184-2.305.645-.761 1.374-1.954 2.173-3.574l-5.088-16.477 10.385-.802.656 3.183a19.29 19.29 0 01.244 3.716h.23c.303-1.466.652-2.69 1.052-3.64l1.367-3.533 11.195-.865-9.611 21.054c-2.133 4.6-4.53 7.853-7.195 9.773-2.674 1.92-6.009 2.878-10.016 2.878zm-8.035-31.012l-1.419 16.188h-11.691l1.339-15.279 11.771-.91zM136.872.33l-2.358 26.902-11.869 2.028L125.181.33h11.691zm-26.828 32.522l-1.255 14.322h-11.69l1.175-13.413 11.77-.91zm8.94-19.803c-.308 3.497-.614 6.997-.92 10.494h-7.204l-.688 7.848-11.868 2.028.865-9.877h-4.487l.92-10.493h4.769l.132-1.505c.485-3.937 1.637-6.801 3.461-8.599C105.952.982 108.961 0 112.989 0c2.924 0 5.953.53 9.089 1.61l-3.164 7.622a15.187 15.187 0 00-4.164-.596c-.908 0-1.589.277-2.042.829-.465.56-.74 1.455-.848 2.68l-.079.905h7.203zm-26.747 0l-.92 10.494c-1.835 0-3.75-.049-5.583.017-4.507.175-6.948 2.465-7.333 6.85l-1.47 16.765H65.238l2.993-34.126h8.701l1.351 5.45h.557a13.076 13.076 0 014.491-4.392 12.984 12.984 0 012.18-1.058h6.725zm-76.75 34.732c-5.516 0-9.578-1.5-12.195-4.5-2.615-3-3.669-7.334-3.173-13.003.497-5.66 2.425-10.05 5.784-13.159 3.361-3.123 7.898-4.678 13.612-4.678 3.887 0 7.51.872 10.86 2.614l-4.221 8.703c-2.979-1.367-5.438-2.041-7.386-2.041-1.95 0-3.502.74-4.66 2.217-1.161 1.488-1.857 3.574-2.095 6.276-.479 5.47 1.285 8.196 5.292 8.196 3.404 0 6.776-1.004 10.115-3.011l-.82 9.375c-3.207 2.008-6.908 3.01-11.113 3.01zm46.168-.606h-8.068l-1.859-4.523H51.5c-1.703 1.941-3.42 3.288-5.159 4.015-1.727.74-3.884 1.114-6.446 1.114-3.218 0-5.64-.97-7.288-2.912-1.646-1.94-2.319-4.643-2.015-8.095.614-7.004 5.82-10.71 15.62-11.108l5.7-.21.041-.463c.247-2.813-1.022-4.215-3.791-4.215-2.43 0-5.635.83-9.612 2.505l-2.703-7.765c4.143-2.052 9.216-3.077 15.212-3.077 4.337 0 7.601 1.092 9.784 3.286 2.195 2.185 3.112 5.207 2.773 9.068l-1.961 22.38z" fill="#fff"/></svg>