<svg width="30" height="30" fill="none" xmlns="http://www.w3.org/2000/svg"><g clip-path="url(#clip0_8:14577)" fill="#fff"><path d="M29.725 25.587l-2.813-2.812c-.59-.591-1.6-.17-1.6.662V25H5V4.687h1.562c.837 0 1.253-1.012.663-1.6L4.412.275a.938.938 0 00-1.326 0L.275 3.087c-.589.588-.173 1.6.662 1.6H2.5V25H1.25a1.25 1.25 0 100 2.5H2.5v1.25a1.25 1.25 0 102.5 0V27.5h20.313v1.562c0 .837 1.013 1.25 1.6.663l2.812-2.813a.936.936 0 000-1.325z"/><path d="M16.25 5L25 8.75l-8.75 3.75L7.5 8.75 16.25 5zM15 14.684L7.5 11.47v7.28c0 .259.159.491.4.584l7.1 2.73v-7.38zm2.5 0v7.38l7.1-2.732a.622.622 0 00.4-.582v-7.28l-7.5 3.214z"/></g><defs><clipPath id="clip0_8:14577"><path fill="#fff" d="M0 0h30v30H0z"/></clipPath></defs></svg>