<svg width="30" height="30" fill="none" xmlns="http://www.w3.org/2000/svg"><path d="M1.538 20.385c-.85 0-1.538-.688-1.538-1.539v-7.691a1.538 1.538 0 113.077 0v7.691a1.54 1.54 0 01-1.539 1.539zm4.488 3.846c-.85 0-1.539-.689-1.539-1.538V7.307a1.538 1.538 0 013.077 0v15.386c0 .85-.689 1.538-1.538 1.538zm4.487-1.924c-.85 0-1.539-.688-1.539-1.538V9.23a1.538 1.538 0 013.078 0v11.54a1.54 1.54 0 01-1.54 1.538zM15 26.154c-.85 0-1.538-.688-1.538-1.538V5.385a1.538 1.538 0 113.076 0v19.23c0 .85-.688 1.54-1.538 1.54zM19.486 30a1.539 1.539 0 01-1.538-1.538V1.538a1.539 1.539 0 013.077 0v26.924c0 .85-.688 1.538-1.538 1.538zm4.489-5.769c-.85 0-1.538-.689-1.538-1.538V7.307a1.538 1.538 0 113.076 0v15.386c0 .85-.689 1.538-1.538 1.538zm4.487-5.769a1.54 1.54 0 01-1.539-1.538v-3.846a1.538 1.538 0 013.077 0v3.846c0 .849-.689 1.538-1.538 1.538z" fill="#fff"/></svg>